<svg width="110" height="24" viewBox="0 0 110 24" fill="none" xmlns="http://www.w3.org/2000/svg">
<path d="M0 4.91624V0.0167236H5.42077V4.91624H0ZM0 10.3471L5.42077 4.91624V23.9999H0V10.3471Z" fill="white"/>
<path d="M23.9597 0H29.3132V23.9832H23.6571L13.7672 8.2186V23.9832H8.45068V8.2186H13.7672L8.67599 0H14.9509L23.9631 14.5775L23.9597 0Z" fill="white"/>
<path d="M49.6311 16.7129C49.6311 20.3144 46.608 23.9832 41.1166 23.9832C35.5882 23.9832 32.8005 20.8726 31.9497 17.9302L36.5735 16.3833C37.0577 18.0916 38.4903 19.4401 41.1805 19.4401C43.1948 19.4401 44.4289 18.4649 44.4289 17.0391C44.4289 15.8722 43.4873 15.0281 41.9573 14.7356L38.8064 14.1505C34.9056 13.4039 32.5348 10.8079 32.5348 7.40142C32.5348 3.05337 36.3684 0.00671387 40.7938 0.00671387C45.6193 0.00671387 47.9228 2.42453 48.8307 4.79528L44.2204 6.33541C43.7295 5.43419 42.7139 4.5498 40.7601 4.5498C38.8434 4.5498 37.6092 5.75029 37.6092 7.01469C37.6092 8.11767 38.2919 8.92812 39.8858 9.22068L42.9728 9.8058C47.3545 10.6129 49.6311 13.4375 49.6311 16.7129Z" fill="white"/>
<path d="M50.522 0H70.6783V5.10805H63.2601V23.9832H57.9066V10.4683L63.2601 5.10805H50.522V0Z" fill="url(#paint0_linear_789_2662)"/>
<path d="M91.2517 23.9999H85.4241L83.6956 19.1273H74.4144L72.6859 23.9999H67.0601L76.1092 0.0167236H82.3068L86.0899 10.1621L82.0008 14.2546L79.1223 5.96542L76.1799 14.2546H87.62L91.2517 23.9999Z" fill="url(#paint1_linear_789_2662)"/>
<path d="M109.774 7.67722C109.774 12.2102 106.421 15.3544 101.542 15.3544H97.8496V23.9799H92.4995V10.0278L97.8866 4.63394V10.7575H101.004C103.035 10.7575 104.424 9.57385 104.424 7.71424C104.424 5.78402 103.035 4.63731 101.004 4.63731H92.4995V0.0034206H101.549C106.418 5.7847e-05 109.774 3.21484 109.774 7.67722Z" fill="url(#paint2_linear_789_2662)"/>
<defs>
<linearGradient id="paint0_linear_789_2662" x1="41.8542" y1="1.20549" x2="113.082" y2="25.393" gradientUnits="userSpaceOnUse">
<stop stop-color="#834906"/>
<stop offset="0.344" stop-color="#E5B350"/>
<stop offset="0.512" stop-color="#FFFFBE"/>
<stop offset="0.685" stop-color="#F5D36F"/>
<stop offset="1" stop-color="#774300"/>
</linearGradient>
<linearGradient id="paint1_linear_789_2662" x1="43.8012" y1="-2.82675" x2="150.112" y2="80.376" gradientUnits="userSpaceOnUse">
<stop stop-color="#834906"/>
<stop offset="0.344" stop-color="#E5B350"/>
<stop offset="0.512" stop-color="#FFFFBE"/>
<stop offset="0.685" stop-color="#F5D36F"/>
<stop offset="1" stop-color="#774300"/>
</linearGradient>
<linearGradient id="paint2_linear_789_2662" x1="48.2034" y1="-12.0243" x2="120.218" y2="5.93733" gradientUnits="userSpaceOnUse">
<stop stop-color="#834906"/>
<stop offset="0.344" stop-color="#E5B350"/>
<stop offset="0.512" stop-color="#FFFFBE"/>
<stop offset="0.685" stop-color="#F5D36F"/>
<stop offset="1" stop-color="#774300"/>
</linearGradient>
</defs>
</svg>
